<?xml version="1.0" encoding="utf-8"?>
<!-- Designed by Vexels.com - 2016 All Rights Reserved - https://vexels.com/terms-and-conditions/  -->

<svg version="1.1" id="Layer_1" xmlns="http://www.w3.org/2000/svg" xmlns:xlink="http://www.w3.org/1999/xlink" x="0px" y="0px"
	 width="1200px" height="1200px" viewBox="0 0 1200 1200" enable-background="new 0 0 1200 1200" xml:space="preserve">
<g>
	<path fill="#E63812" d="M157.319,745.837c23.048,0,41.624,18.621,41.624,41.667c0,22.957-18.576,41.667-41.624,41.667
		c-23.012,0-41.699-18.711-41.699-41.667C115.62,764.458,134.308,745.837,157.319,745.837z"/>
	<path fill="#E63812" d="M848.502,745.837c23.08,0,41.77,18.621,41.77,41.667c0,22.957-18.69,41.667-41.77,41.667
		c-23.035,0-41.645-18.711-41.645-41.667C806.857,764.458,825.467,745.837,848.502,745.837z"/>
	<path fill="#E63812" d="M986.716,745.837c23.126,0,41.679,18.621,41.679,41.667c0,22.957-18.553,41.667-41.679,41.667
		c-22.934,0-41.622-18.711-41.622-41.667C945.094,764.458,963.782,745.837,986.716,745.837z"/>
	<path fill="#E63812" d="M50,686.262c0,32.191,16.172,60.222,50.093,78.397c8.998-22.421,31.016-38.293,56.702-38.293
		c32.96,0,59.886,26.155,61.149,58.835h568.247c1.263-32.681,28.109-58.835,61.104-58.835c33.072,0,59.808,26.155,61.239,58.835
		h17.703c1.321-32.681,28.167-58.835,61.138-58.835c31.699,0,57.674,23.987,60.916,54.655
		C1107.103,768.906,1150,730.814,1150,685.66V501.956c0-54.923-11.143-100.459-141.824-99.541H285.073
		c1.005-2.751,1.586-5.746,1.586-8.92c0-12.519-8.685-22.666-19.347-22.666h-53.907c-10.763,0-19.448,10.147-19.448,22.666
		c0,3.175,0.547,6.169,1.609,8.92h-9.477c-78.317,0-135.779,128.779-135.779,183.771L50,686.262z M468.173,583.615H334.72V437.487
		h133.453V583.615z M490.45,437.487h133.54v146.128H490.45V437.487z M1097.705,583.546H992.418V438.449
		C1088.997,448.262,1094.383,569.196,1097.705,583.546z M967.046,706.136c0-2.838,3.912-5.208,8.662-5.208h118.597
		c4.796,0,8.595,2.369,8.595,5.208c0,2.973-3.8,5.343-8.595,5.343H975.708C970.958,711.479,967.046,709.109,967.046,706.136z
		 M967.046,680.272c0-2.861,3.912-5.253,8.662-5.253h118.597c4.796,0,8.595,2.392,8.595,5.253c0,2.951-3.8,5.276-8.595,5.276
		H975.708C970.958,685.548,967.046,683.223,967.046,680.272z M967.046,654.408c0-2.882,3.912-5.274,8.662-5.274h118.597
		c4.796,0,8.595,2.392,8.595,5.274c0,2.884-3.8,5.233-8.595,5.233H975.708C970.958,659.641,967.046,657.292,967.046,654.408z
		 M819.264,583.546V437.487h150.9v146.059H819.264z M646.167,583.615V437.487h150.866v146.059L646.167,583.615z M178.88,583.638
		V444.036c10.374-3.063,21.439-5.432,34.079-6.549h99.486v146.151H178.88z M86.737,583.638
		c8.16-66.481,28.032-109.601,69.923-131.041v131.041H89.935H86.737z"/>
</g>
</svg>
